<svg xmlns="http://www.w3.org/2000/svg" width="649" height="364" viewBox="0 0 649 364">
  <defs>
    <linearGradient id="resources-cleancode-js@2x-a" x1="50%" x2="50%" y1="0%" y2="100%">
      <stop offset="0%" stop-color="#FCF140"/>
      <stop offset="100%" stop-color="#F7DF1E"/>
    </linearGradient>
  </defs>
  <g fill="none" fill-rule="evenodd">
    <rect width="649" height="364" fill="#000"/>
    <g fill-rule="nonzero" transform="translate(387 35)">
      <path fill="#F2B59D" d="M67.8305648,122 L68,122.257812 L38.5606312,144 L38.179402,143.484375 L27.589701,143.484375 C21.7411706,143.484375 17,138.674934 17,132.742188 C17,126.809441 21.7411706,122 27.589701,122 L67.8305648,122 Z"/>
      <path fill="#F2B59D" d="M97 101L67.42 123 67.25 122.73913 39.625 122.73913C33.7569745 122.73913 29 117.87266 29 111.869565 29 105.86647 33.7569745 101 39.625 101L97 101zM228 80.9665859L228 82.6648655 180.957958 85 165.957199 74.7678654C159.031331 68.8368319 158.001606 58.5113986 163.61997 51.3316069 167.242098 46.7221195 173.785988 45.635518 178.705719 48.8266445L228 80.9665859zM262 156.299976L262 182.099833 253.563503 182.099833 251.074736 183.991822C241.741487 191.130872 230.389386 194.993249 218.72077 195L216.738193 195C213.182188 195.010641 209.634429 194.650432 206.15039 193.924767L170 186.571808C178.744436 181.415504 186.377351 174.512237 192.441082 166.275921L202.944521 152 262 156.299976z"/>
      <path fill="#F2C4B2" d="M228.193548,81.6475948 L181.413871,83.9785441 L177.483871,84.1904486 L139.451613,67.2380897 L109.870968,63 L50.7096774,63 C46.0477599,63.0139637 42.2719877,66.800711 42.2580645,71.4761795 C42.2524481,75.973949 44.0315149,80.2891214 47.2027029,83.4695272 C50.373891,86.6499331 54.6765567,88.4341711 59.1612903,88.4285384 L97.1935484,88.4285384 L97.1935484,101.142808 L67.7819355,122.587542 L38.4125806,144.032276 L9.97290323,164.756534 C5.07668691,168.336794 3.032791,174.66969 4.90851153,180.448267 C6.78423205,186.226844 12.1537715,190.139336 18.2132258,190.142692 L20.6219355,190.142692 C22.2550564,190.147135 23.874607,189.845281 25.3970968,189.252693 L27.51,187.7736 C26.9072325,188.398477 26.1897909,188.900707 25.3970968,189.252693 L5.40903226,203.323151 C2.0221413,205.689509 0,209.566729 0,213.706471 L0,215.613611 C0.00466172894,222.610164 5.65888626,228.280824 12.6351613,228.285499 C15.4000983,228.298607 18.090867,227.389137 20.283871,225.700265 L22.4812903,224.005029 L22.5235484,224.04741 C21.6135871,225.74079 21.1345745,227.633295 21.1290323,229.556926 C21.1290323,232.591757 22.3311198,235.502288 24.4708494,237.648238 C26.610579,239.794187 29.5126751,241 32.5387097,241 L34.2712903,241 C36.7097767,241.01553 39.0856974,240.226218 41.0325806,238.753581 L64.3590323,221.504556 C62.8581151,224.84671 63.1472014,228.72383 65.1270509,231.804941 C67.1069004,234.886051 70.5080436,236.751794 74.1629032,236.761679 L76.9096774,236.761679 C79.1095228,236.755046 81.2574915,236.091077 83.0793548,234.854538 L125.421935,205.399815 C131.92282,200.9136 139.079403,197.467883 146.635484,195.186019 L153.777097,193.024593 C159.38383,191.349523 164.77381,189.016559 169.835161,186.074126 C178.595265,180.992033 186.241856,174.18812 192.316452,166.070342 L202.83871,151.999884 L262,156.237974 L262,79.9523589 L228.193548,81.6475948 Z"/>
      <path fill="#F2B59D" d="M106 156.763821C106.001691 154.194339 104.54544 151.846096 102.242153 150.704199 99.9388667 149.562301 97.1869031 149.824242 95.1407316 151.380135L2 222.102572C3.57915779 224.610788 5.98247186 226.491674 8.79766321 227.42257 9.04832704 227.498995 9.29474233 227.592402 9.5496547 227.656089 9.99588695 227.750893 10.4468773 227.821758 10.9006903 227.86838 11.3230283 227.933884 11.748435 227.977814 12.1752521 228 12.5788634 228 12.9824746 228 13.3818373 227.957542 13.6834836 227.957542 13.9893785 227.927821 14.2867762 227.885363 14.7160025 227.81845 15.1414366 227.729166 15.5613381 227.617877 15.8374932 227.549944 16.1178968 227.498995 16.3855548 227.414078 16.8343168 227.260725 17.2740355 227.082115 17.702602 226.879106 17.9192775 226.781453 18.1486987 226.705028 18.3568771 226.594637 18.9961573 226.268654 19.6059781 225.887938 20.1795005 225.456761L22.3887411 223.758437 103.331916 162.143261C105.01362 160.865333 106 158.875122 106 156.763821L106 156.763821zM118 178.700341C117.988096 176.161894 116.541948 173.845962 114.259876 172.710722 111.977804 171.575482 109.247911 171.814 107.199644 173.327592L23 236.155512C23.6533418 237.03412 24.4228812 237.820979 25.287781 238.494782 27.5620033 240.166321 30.3262651 241.046096 33.1533497 240.998138L33.8891609 240.998138C36.3293749 241.013785 38.7069789 240.230204 40.6552415 238.768258L63.9982195 221.644463 115.25128 184.110955C116.978128 182.84319 117.998069 180.835526 118 178.700341L118 178.700341zM94.2699843 137.258493C96.2219481 135.797298 97.2437104 133.40892 96.9503832 130.993036 96.6570561 128.577153 95.0932029 126.500795 92.847912 125.546106 90.602621 124.591417 88.0170055 124.903437 86.0650418 126.364631L7 184.639414C7.3255563 185.081152 7.67702487 185.503314 8.05256605 185.903692 10.6716287 188.52697 14.2315617 190.001194 17.9441506 190L20.3536392 190C21.9872882 190.00437 23.6073625 189.704214 25.1303445 189.114957L38.150037 180.054299 94.2699843 137.258493zM245.099941 80.8486484L245.099941 122.432418C245.099941 131.806329 237.533527 139.405386 228.199882 139.405386L198.426204 139.405386C195.896222 139.399207 193.498245 140.538678 191.898556 142.507195 186.727138 148.863572 174.542196 163.591864 164.824662 173.35132 152.149618 186.081046 131.024544 190.324288 131.024544 190.324288L68 235.005624C69.8055165 236.309033 71.9745515 237.00695 74.1980966 237L76.9443561 237C79.1437893 236.993307 81.2913556 236.328531 83.1128776 235.090489L125.447525 205.599958C131.947191 201.10829 139.102433 197.658384 146.657099 195.373745L153.797374 193.209692C159.403056 191.532586 164.792027 189.196786 169.852429 186.250775 178.610892 181.162505 186.256051 174.35032 192.329508 166.222674L202.849794 152.135111 262 156.378353 262 80 245.099941 80.8486484zM114.578949 75.6666667L64.0526413 75.6666667C57.076414 75.6666667 51.4210645 69.9956068 51.4210645 63 46.7760047 63.0139114 43.0138861 66.786481 43 71.4444444 42.9944171 75.9253743 44.7670506 80.2243905 47.9267715 83.3928888 51.0864923 86.5613872 55.3735992 88.338945 59.8421157 88.3333333L97.7368463 88.3333333 97.7368463 101 123 84.1111111C123 79.4473732 119.229767 75.6666667 114.578949 75.6666667z"/>
      <path fill="#ED9776" d="M202.944521 152L192.441082 166.153913C186.377351 174.31984 178.744436 181.164109 170 186.276345L193.43237 191C200.556992 187.163096 210.790463 180.73415 214.333792 173.814932 215.661226 170.979443 218.452832 169.138629 221.555433 169.052908L245.675378 169.052908C250.031869 169.052908 253.563503 172.622199 253.563503 177.025142L253.563503 181.842589 262 181.842589 262 156.263227 202.944521 152zM80.850013 101L65.2185256 112.421739C63.7765391 113.476333 62.0483506 114.043361 60.2757796 114.043478L37.500048 114.043478C33.9881914 114.033695 30.8437906 111.815464 29.5865544 108.46087 29.2110863 109.556893 29.0129827 110.708258 29 111.869565 28.990985 114.755188 30.1074878 117.525298 32.1020297 119.565752 34.0965716 121.606206 36.8043526 122.748409 39.6250463 122.73913L67.250024 122.73913 67.4200239 123 97 101 80.850013 101z"/>
      <path fill="#ED9776" d="M67.830565 122L57.2408753 122 39.2468747 134.16875C38.5543247 134.637198 37.7410636 134.888276 36.9086712 134.890625L21.2359305 134.890625C19.1930835 134.8719 17.4627461 133.35831 17.1440744 131.311328 17.0638222 131.784373 17.0157023 132.262452 17 132.742188 16.991015 135.593994 18.1038081 138.331643 20.0917231 140.348185 22.0796381 142.364727 24.7784225 143.493545 27.5897443 143.484375L38.1794339 143.484375 38.5606628 144 68 122.257812 67.830565 122zM192.899073 75.783396C190.872299 75.7812028 188.913035 75.0608986 187.374714 73.75242L169.726511 58.7602779C166.212111 55.7620325 165.785738 50.5177516 168.770372 47 166.744572 47.6852361 164.95789 48.9291589 163.61997 50.5858103 158.001606 57.7113931 159.031331 67.9588672 165.957199 73.8451201L180.957958 84 228 81.6824963 228 79.9970391 221.489755 75.783396 192.899073 75.783396z"/>
      <path fill="#B3F5FF" d="M160.826101,230.180127 C160.947925,230.778916 161.005925,231.388971 160.999126,232.000031 C161.00795,232.625514 160.949945,233.250147 160.826101,233.863267 C160.869358,233.94993 160.826101,234.036592 160.782845,234.166585 C160.715079,234.742441 160.584532,235.309126 160.39354,235.856496 C160.366561,236.058661 160.292471,236.25163 160.17726,236.4198 C160.083221,236.846738 159.922648,237.256177 159.701443,237.63307 C159.666141,237.737408 159.622752,237.838823 159.571675,237.936388 C159.268882,238.499692 158.922833,239.019664 158.576784,239.539637 C158.194913,240.060587 157.775661,240.552976 157.322357,241.012894 C156.873586,241.49112 156.381212,241.92632 155.85165,242.312826 C154.812266,243.102011 153.660305,243.730114 152.434418,244.176061 C151.031257,244.735668 149.532489,245.015334 148.022296,244.999352 C141.085754,245.023561 135.356685,239.578923 135.015922,232.638707 C134.67516,225.698491 139.843207,219.716953 146.748641,219.059167 C153.654075,218.401381 159.854938,223.29996 160.826101,230.180127 L160.826101,230.180127 Z"/>
      <path fill="#81D2F5" d="M169,228 C178.388841,228 186,235.611159 186,245 C186,254.388841 178.388841,262 169,262 C159.611159,262 152,254.388841 152,245 C152,244.745 152.085,244.4475 152.085,244.1925 C153.307979,243.797203 154.446583,243.177457 155.4425,242.365 C155.990985,242.022329 156.479202,241.591549 156.8875,241.09 C157.344759,240.649948 157.757584,240.165947 158.12,239.645 C158.485533,239.146579 158.812323,238.620872 159.0975,238.0725 C159.147685,237.976806 159.190315,237.877337 159.225,237.775 C159.442338,237.405335 159.600104,237.003749 159.6925,236.585 C159.805697,236.420055 159.878492,236.230787 159.905,236.0325 C160.092653,235.495628 160.220918,234.939812 160.2875,234.375 C160.33,234.2475 160.3725,234.1625 160.33,234.0775 C160.451679,233.476139 160.50867,232.863486 160.5,232.25 C160.50668,231.65066 160.449694,231.052305 160.33,230.465 C162.940638,228.866935 165.939112,228.014428 169,228 L169,228 Z"/>
      <path fill="#96E0FF" d="M148.809591,194.669555 C148.275793,193.25676 148.001632,191.75953 148,190.249687 C147.97335,186.038167 150.045917,182.088641 153.530404,179.711331 C157.014891,177.334022 161.455687,176.839771 165.379597,178.392541 C166.264717,173.766118 169.056684,169.723285 173.07439,167.250304 C177.092096,164.777323 181.966116,164.101582 186.50742,165.38793 C187.240975,157.80927 193.614388,152.020192 201.24578,152.00083 C201.945316,151.992324 202.644112,152.049238 203.333004,152.170825 C211.012586,153.33643 216.508221,160.189819 215.96269,167.920807 C215.41716,175.651795 209.013298,181.669353 201.24578,181.749941 C200.518118,181.721278 199.792749,181.650326 199.073363,181.537448 C199.107796,181.602701 199.122589,181.676494 199.115959,181.749941 C199.115959,191.138502 191.487533,198.749434 182.077392,198.749434 C178.581886,198.750798 175.172641,197.666501 172.322813,195.647026 C170.152121,200.305758 165.384039,203.202794 160.239176,202.988916 C155.094313,202.775039 150.584313,199.492302 148.809591,194.669555 L148.809591,194.669555 Z"/>
      <path fill="#81D2F5" d="M148.51281 12.8565842C152.775552 12.865539 156.373146 16.0537883 156.927212 20.3135698 157.481277 24.5733513 154.820614 28.5884411 150.704195 29.7044499 146.587776 30.8204586 142.287529 28.6925523 140.646361 24.727497 139.099463 25.3865399 137.435814 25.7218828 135.756405 25.7131684 128.711237 25.7131684 123 19.9570796 123 12.8565842 123 5.75608882 128.711237 0 135.756405 0 142.801573 0 148.51281 5.75608882 148.51281 12.8565842L148.51281 12.8565842zM74.7210141 118.660329C76.219435 121.248987 77.0057634 124.188712 77 127.180304 77 136.686268 69.2994209 144.392375 59.8003145 144.392375 59.5423196 144.392375 59.2843248 144.306315 59.02633 144.306315 57.4422811 148.926363 53.3813603 152.250938 48.5423171 152.889313 43.7032738 153.527689 38.9201444 151.369839 36.1937897 147.318427 35.5386352 146.336713 35.0315374 145.263789 34.68882 144.134194 34.2172674 142.83856 33.9841746 141.468151 34.0008338 140.089357 34.0290026 134.609637 37.5112015 129.74484 42.686659 127.954847 42.686659 127.696666 42.6006607 127.438485 42.6006607 127.180304 42.5946711 125.772703 42.768066 124.370082 43.1166503 123.006377 44.8308754 116.19952 50.5039974 111.116438 57.4533228 110.160808 64.4026482 109.205177 71.2355948 112.568497 74.7210141 118.660329z"/>
      <circle cx="21.5" cy="42.5" r="21.5" fill="#B3F5FF"/>
      <path fill="#96E0FF" d="M25.7758805,51.2172849 C13.9270256,51.2174316 4.30498367,41.7352083 4.2457394,30 C-1.32991797,37.4280707 -1.42216633,47.5727402 4.01750645,55.0990667 C9.45717924,62.6253932 19.1828065,65.8094582 28.079815,62.976806 C36.9768235,60.1441537 43.0073377,51.9436082 43,42.6877231 C43,42.6493401 43,42.6152218 43,42.5811036 C38.9665329,48.0025102 32.5752646,51.2070962 25.7758805,51.2172849 Z"/>
      <circle cx="59" cy="21" r="13" fill="#81D2F5"/>
      <circle cx="47" cy="140" r="13" fill="#B3F5FF"/>
      <path fill="#96E0FF" d="M47,143.5 C41.5064514,143.490361 36.6162616,140.084007 34.7973333,135 C34.2837666,136.361001 34.0140152,137.798849 34,139.25 C34,146.291631 39.8202983,152 47,152 C54.1797017,152 60,146.291631 60,139.25 C59.9859848,137.798849 59.7162334,136.361001 59.2026667,135 C57.3837384,140.084007 52.4935486,143.490361 47,143.5 Z"/>
      <circle cx="182" cy="182" r="17" fill="#B3F5FF"/>
      <path fill="#96E0FF" d="M182,190.062395 C174.266521,190.046946 167.521987,184.674927 165.600252,177 C163.714639,184.082282 166.365808,191.615557 172.228896,195.835239 C178.091984,200.05492 185.908016,200.05492 191.771104,195.835239 C197.634192,191.615557 200.285361,184.082282 198.399748,177 C196.478013,184.674927 189.733479,190.046946 182,190.062395 L182,190.062395 Z"/>
      <path fill="#F2AA8F" d="M30.6888205,156.241263 C31.0315381,157.357217 31.5386364,158.417183 32.1937913,159.387041 C34.920148,163.389526 39.703281,165.521317 44.5423278,164.89065 C49.3813747,164.259984 53.4422984,160.975559 55.0263485,156.411305 C55.2843435,156.411305 55.5423385,156.496326 55.8003335,156.496326 C65.299447,156.496326 73,148.883283 73,139.492119 C73,138.986244 72.9441011,138.493122 72.9011019,138 C69.6654398,141.641701 65.0031101,143.73348 60.1002502,143.743171 C59.8422552,143.743171 59.5842602,143.65815 59.3262652,143.65815 C57.742215,148.222404 53.6812913,151.506828 48.8422445,152.137495 C44.0031976,152.768161 39.2200646,150.636371 36.4937079,146.633886 C36.4034097,146.497852 36.3389109,146.353317 36.2529126,146.208781 L30.1341313,150.612871 C30.0547072,151.153658 30.0101847,151.698895 30.0008338,152.245274 C29.9841746,153.607417 30.2172675,154.961276 30.6888205,156.241263 Z"/>
      <path fill="#66B9DE" d="M174.80059,258.389923 C170.549852,257.858532 166.809976,255.29588 164.746875,251.50088 C162.683775,247.70588 162.54838,243.140108 164.382901,239.226956 C165.747109,235.975222 165.846311,232.322525 164.660651,229 C163.067633,229.408636 161.541473,230.048158 160.129599,230.898693 C160.244959,231.478047 160.299155,232.068147 160.291274,232.659071 C160.299731,233.264094 160.244141,233.868296 160.125454,234.461362 C160.166909,234.545189 160.125454,234.629017 160.083998,234.754758 C160.019053,235.311779 159.893941,235.859928 159.710902,236.389395 C159.685045,236.584947 159.61404,236.771603 159.503626,236.934273 C159.413502,237.347246 159.259614,237.743293 159.047619,238.107858 C159.013786,238.208783 158.972204,238.306881 158.923253,238.401255 C158.645087,238.942063 158.326331,239.460518 157.969784,239.952064 C157.616277,240.465825 157.213602,240.94315 156.767583,241.377131 C156.369323,241.871762 155.893108,242.2966 155.358107,242.634544 C154.386673,243.435794 153.276061,244.046991 152.083147,244.436835 C152.083147,244.688318 152,244.981714 152,245.233196 C151.966015,251.707343 155.640789,257.616521 161.42645,260.390911 C167.212111,263.1653 174.063093,262.303523 179,258.180355 C177.612655,258.411648 176.203719,258.48196 174.80059,258.389923 Z"/>
      <path fill="#FFF" d="M188.470372,179.943009 C190.790213,180.475523 192.07805,177.154885 191.991327,175.042145 C192.133195,172.048679 190.525044,169.244293 187.867647,167.851036 C186.043761,167.00926 183.994686,166.784305 182.031186,167.210287 C181.20267,167.316884 180.423443,167.663001 179.789395,168.206045 C179.111313,168.841762 178.842422,169.800588 179.091275,170.695442 C179.291779,171.17968 179.601984,171.610919 179.997531,171.955293 L186.631843,178.644193 C187.112265,179.238908 187.748801,179.688585 188.470372,179.943009 Z"/>
      <path fill="#B0E8FF" d="M65.4703717 124.943009C67.7902131 125.475523 69.0780503 122.154885 68.9913272 120.042145 69.1331949 117.048679 67.5250437 114.244293 64.8676466 112.851036 63.0437611 112.00926 60.994686 111.784305 59.0311859 112.210287 58.2026703 112.316884 57.423443 112.663001 56.7893952 113.206045 56.1113128 113.841762 55.842422 114.800588 56.0912748 115.695442 56.2917785 116.17968 56.6019837 116.610919 56.9975305 116.955293L63.6318433 123.644193C64.1122655 124.238908 64.7488012 124.688585 65.4703717 124.943009zM208.560846 164.960548C210.16639 165.32898 211.05686 163.033019 210.993897 161.568276 211.092901 159.497346 209.980608 157.557053 208.142596 156.594442 206.878543 156.007703 205.457145 155.849919 204.095006 156.145134 203.521731 156.221062 202.982785 156.461408 202.54343 156.837068 202.076969 157.279604 201.892041 157.942644 202.062217 158.562409 202.203094 158.894512 202.416709 159.190834 202.687344 159.429572L207.270115 164.061933C207.607991 164.475939 208.055095 164.787216 208.560846 164.960548L208.560846 164.960548z"/>
      <path fill="#FFF" d="M52.5608464,139.960548 C54.1663903,140.32898 55.05686,138.033019 54.9938975,136.568276 C55.0929015,134.497346 53.9806081,132.557053 52.1425955,131.594442 C50.8785435,131.007703 49.4571454,130.849919 48.095006,131.145134 C47.5217312,131.221062 46.9827849,131.461408 46.54343,131.837068 C46.0769688,132.279604 45.8920408,132.942644 46.0622166,133.562409 C46.203094,133.894512 46.4167089,134.190834 46.6873443,134.429572 L51.2701151,139.061933 C51.607991,139.475939 52.0550954,139.787216 52.5608464,139.960548 L52.5608464,139.960548 Z"/>
      <path fill="#B0E8FF" d="M160.949867,195.689172 C161.363407,197.123924 159.124894,197.9976 157.677501,197.985577 C155.623787,198.129346 153.66554,197.188979 152.670063,195.580964 C152.054484,194.454735 151.856154,193.183252 152.103692,191.949999 C152.155699,191.432896 152.374236,190.940218 152.732993,190.531277 C153.146248,190.097596 153.798271,189.908468 154.418621,190.042339 C154.761263,190.158138 155.069027,190.343357 155.317623,190.583377 L160.03738,194.591065 C160.446048,194.877901 160.76112,195.257066 160.949867,195.689172 L160.949867,195.689172 Z"/>
      <path fill="#FFF" d="M29.3872087 42.9246486C32.4151821 43.6251246 34.1035323 39.2821735 33.9887075 36.5184773 34.1738129 32.6055299 32.0708034 28.9399993 28.5961932 27.119363 26.2129592 26.0165073 23.5347499 25.7184572 20.9667212 26.2703012 19.8823052 26.4101845 18.8624189 26.8631638 18.0323088 27.5736111 17.1468039 28.4061059 16.7949558 29.6591012 17.1179629 30.8297631 17.3820482 31.462194 17.7879693 32.0257102 18.3044862 32.476943L26.9673818 41.2222797C27.60004 42.0029746 28.4379288 42.5924365 29.3872087 42.9246486L29.3872087 42.9246486zM65.5698887 21.960548C67.1699676 22.3289802 68.0574063 20.0330187 67.9946581 18.5682762 68.0874263 16.4903259 66.9656178 14.5481936 65.1216873 13.5944418 63.8619379 13.0077034 62.445378 12.8499194 61.087875 13.1451343 60.5165515 13.221062 59.9794397 13.461408 59.5415803 13.8370679 59.0767068 14.2796039 58.8924083 14.942644 59.0620048 15.5624088 59.2024027 15.8945118 59.4152905 16.1908337 59.6850047 16.4295723L64.2521767 21.0619329C64.5974225 21.4807857 65.0544686 21.7924688 65.5698887 21.960548L65.5698887 21.960548zM142.470372 14.9430088C144.790213 15.4755232 146.07805 12.1548847 145.991327 10.0421447 146.133195 7.04867868 144.525044 4.24429323 141.867647 2.85103576 140.043761 2.00926049 137.994686 1.78430517 136.031186 2.21028674 135.20267 2.31688362 134.423443 2.6630008 133.789395 3.20604535 133.111313 3.84176246 132.842422 4.80058795 133.091275 5.69544189 133.291779 6.17968021 133.601984 6.61091858 133.997531 6.955293L140.631843 13.6441933C141.112265 14.2389084 141.748801 14.6885847 142.470372 14.9430088L142.470372 14.9430088zM153.560846 231.960548C155.16639 232.32898 156.05686 230.033019 155.993897 228.568276 156.092901 226.497346 154.980608 224.557053 153.142596 223.594442 151.878543 223.007703 150.457145 222.849919 149.095006 223.145134 148.521731 223.221062 147.982785 223.461408 147.54343 223.837068 147.076969 224.279604 146.892041 224.942644 147.062217 225.562409 147.203094 225.894512 147.416709 226.190834 147.687344 226.429572L152.270115 231.061933C152.607991 231.475939 153.055095 231.787216 153.560846 231.960548L153.560846 231.960548zM179.470372 247.943009C181.790213 248.475523 183.07805 245.154885 182.991327 243.042145 183.133195 240.048679 181.525044 237.244293 178.867647 235.851036 177.043761 235.00926 174.994686 234.784305 173.031186 235.210287 172.20267 235.316884 171.423443 235.663001 170.789395 236.206045 170.111313 236.841762 169.842422 237.800588 170.091275 238.695442 170.291779 239.17968 170.601984 239.610919 170.997531 239.955293L177.631843 246.644193C178.112265 247.238908 178.748801 247.688585 179.470372 247.943009L179.470372 247.943009z"/>
    </g>
    <g fill-rule="nonzero" transform="translate(142 76)">
      <rect width="212" height="212" fill="url(#resources-cleancode-js@2x-a)"/>
      <path fill="#000" d="M142.767022,166.282201 C147.046027,173.240646 152.613117,178.355372 162.459211,178.355372 C170.730605,178.355372 176.014451,174.238068 176.014451,168.549069 C176.014451,161.731673 170.585611,159.317039 161.481346,155.35086 L156.49086,153.218325 C142.085888,147.106177 132.516294,139.449201 132.516294,123.262085 C132.516294,108.351131 143.923601,97 161.751102,97 C174.443122,97 183.56762,101.399403 190.142923,112.91845 L174.598232,122.859086 C171.175703,116.746938 167.483417,114.339021 161.751102,114.339021 C155.90414,114.339021 152.198367,118.033176 152.198367,122.859086 C152.198367,128.823468 155.907512,131.238102 164.472266,134.932257 L169.462752,137.061434 C186.423661,144.305336 196,151.690288 196,168.293836 C196,186.193697 181.881645,196 162.921169,196 C144.382186,196 132.405019,187.201194 126.54457,175.668713 L142.767022,166.282201 Z M72.249428,168.005021 C75.3853417,173.546253 78.2380115,178.231114 85.0965582,178.231114 C91.6550013,178.231114 95.7923842,175.67543 95.7923842,165.738153 L95.7923842,98.1351131 L115.754329,98.1351131 L115.754329,166.006818 C115.754329,186.593338 103.63554,195.963058 85.9462897,195.963058 C69.9632457,195.963058 60.7072425,187.725092 56,177.802928 L72.249428,168.005021 Z"/>
    </g>
  </g>
</svg>
