<svg xmlns="http://www.w3.org/2000/svg" width="649" height="364" viewBox="0 0 649 364">
  <defs>
    <linearGradient id="resources-typescript@2x-a" x1="50%" x2="50%" y1="0%" y2="100%">
      <stop offset="0%" stop-color="#5FB0E5"/>
      <stop offset="100%" stop-color="#3178C6"/>
    </linearGradient>
  </defs>
  <g fill="none" fill-rule="evenodd">
    <rect width="649" height="364" fill="#000"/>
    <g transform="translate(204 61)">
      <rect width="242" height="242" fill="url(#resources-typescript@2x-a)" fill-rule="nonzero" rx="50"/>
      <path fill="#FFF" d="M150.087155,192.374041 L150.087155,216.074808 C153.916833,218.065673 158.597551,219.53512 163.798348,220.530552 C168.999146,221.525985 174.672743,222 180.34634,222 C186.019937,222 191.220735,221.478583 196.421532,220.388348 C201.62233,219.298113 205.877528,217.496854 209.659926,215.174179 C213.489604,212.661898 216.751923,209.485995 218.643122,205.219857 C220.534321,200.953719 222,196.213565 222,190.051366 C222,185.737826 221.33808,181.993105 220.061521,178.674998 C218.784962,175.35689 216.941042,172.512798 214.387924,170.142722 C211.976645,167.63044 209.187126,165.402568 205.877528,163.506507 C202.567929,161.610446 198.785531,159.619581 194.530333,157.818323 C191.409855,156.538481 188.856736,155.306042 186.019937,154.073602 C183.561379,152.841162 181.43378,151.608722 179.87354,150.376282 C178.124181,149.096441 176.800342,147.769198 175.854742,146.394553 C174.909143,144.972507 174.436343,143.408256 174.436343,141.6544 C174.436343,140.042748 174.857135,138.5733 175.712902,137.246057 C176.56867,135.918814 177.745941,134.828579 179.258901,133.880548 C180.77186,132.932517 182.663059,132.221494 184.932498,131.700078 C187.154657,131.178661 189.613216,130.941653 192.497294,130.941653 C194.483053,130.941653 196.563372,131.088598 198.643691,131.387227 C200.81857,131.685857 203.040729,132.145652 205.262888,132.761872 C207.485047,133.378092 209.659926,134.136516 211.882085,135.084547 C213.962404,136.032578 215.900883,137.122813 217.555682,138.355253 L217.555682,116.076532 C213.962404,114.701887 209.990886,113.659054 205.735688,112.995432 C201.48049,112.331811 196.752492,112 191.078895,112 C185.405298,112 180.2045,112.61622 175.003703,113.801258 C169.802905,114.986297 165.547707,116.882358 161.765309,119.489442 C157.935631,122.049125 155.146112,125.177626 152.782113,129.443765 C150.559954,133.425493 149.472515,137.976041 149.472515,143.664225 C149.472515,150.774455 151.505554,156.936654 155.618912,161.676808 C159.68499,166.890976 166.020507,170.683099 174.058103,174.475222 C177.320422,175.802465 180.2045,177.129708 183.041299,178.409549 C185.878097,179.689391 188.242096,181.016634 190.133295,182.391278 C192.166334,183.765923 193.773854,185.282772 194.861293,186.894424 C196.043293,188.506076 196.657932,190.402137 196.657932,192.582608 C196.657932,194.099457 196.289148,195.521503 195.570493,196.848746 C194.851837,198.175989 193.726574,199.313626 192.213614,200.261656 C190.700655,201.209687 188.856736,201.968112 186.540017,202.53693 C184.317858,203.058347 181.812019,203.342756 178.502421,203.342756 C173.301623,203.342756 168.100826,202.442127 163.372828,200.640869 C158.172031,198.83961 153.444033,196.137723 149.188835,192.582608 L150.087155,192.374041 Z M110.371974,134.070154 L140.631159,134.070154 L140.631159,114.635525 L56,114.635525 L56,134.070154 L86.2591854,134.070154 L86.2591854,220.814962 L110.371974,220.814962 L110.371974,134.070154 Z"/>
    </g>
  </g>
</svg>
